<svg width="376" height="97" viewBox="0 0 376 97" fill="none" xmlns="http://www.w3.org/2000/svg">
<rect width="373" height="97" fill="white"/>
<rect x="186" y="10" width="173" height="77" rx="8" fill="#FF8A00"/>
<path d="M16.5909 72V25.4545H46.4091V32.5227H25.0227V45.1591H44.3636V52.2273H25.0227V72H16.5909ZM63.4602 72.7045C61.2481 72.7045 59.2557 72.3106 57.483 71.5227C55.7254 70.7197 54.3314 69.5379 53.3011 67.9773C52.286 66.4167 51.7784 64.4924 51.7784 62.2045C51.7784 60.2348 52.142 58.6061 52.8693 57.3182C53.5966 56.0303 54.589 55 55.8466 54.2273C57.1042 53.4545 58.5208 52.8712 60.0966 52.4773C61.6875 52.0682 63.3314 51.7727 65.0284 51.5909C67.0739 51.3788 68.733 51.1894 70.0057 51.0227C71.2784 50.8409 72.2027 50.5682 72.7784 50.2045C73.3693 49.8258 73.6648 49.2424 73.6648 48.4545V48.3182C73.6648 46.6061 73.1572 45.2803 72.142 44.3409C71.1269 43.4015 69.6648 42.9318 67.7557 42.9318C65.7405 42.9318 64.142 43.3712 62.9602 44.25C61.7936 45.1288 61.0057 46.1667 60.5966 47.3636L52.9148 46.2727C53.5208 44.1515 54.5208 42.3788 55.9148 40.9545C57.3087 39.5151 59.0133 38.4394 61.0284 37.7273C63.0436 37 65.2708 36.6364 67.7102 36.6364C69.392 36.6364 71.0663 36.8333 72.733 37.2273C74.3996 37.6212 75.9223 38.2727 77.3011 39.1818C78.6799 40.0758 79.786 41.2955 80.6193 42.8409C81.4678 44.3864 81.892 46.3182 81.892 48.6364V72H73.983V67.2045H73.7102C73.2102 68.1742 72.5057 69.0833 71.5966 69.9318C70.7027 70.7652 69.5739 71.4394 68.2102 71.9545C66.8617 72.4545 65.2784 72.7045 63.4602 72.7045ZM65.5966 66.6591C67.2481 66.6591 68.6799 66.3333 69.892 65.6818C71.1042 65.0152 72.036 64.1364 72.6875 63.0455C73.3542 61.9545 73.6875 60.7652 73.6875 59.4773V55.3636C73.4299 55.5758 72.9905 55.7727 72.3693 55.9545C71.7633 56.1364 71.0814 56.2955 70.3239 56.4318C69.5663 56.5682 68.8163 56.6894 68.0739 56.7955C67.3314 56.9015 66.6875 56.9924 66.142 57.0682C64.9148 57.2348 63.8163 57.5076 62.8466 57.8864C61.8769 58.2652 61.1117 58.7955 60.5511 59.4773C59.9905 60.1439 59.7102 61.0076 59.7102 62.0682C59.7102 63.5833 60.2633 64.7273 61.3693 65.5C62.4754 66.2727 63.8845 66.6591 65.5966 66.6591ZM97.6648 61.0455L97.642 51.1136H98.9602L111.506 37.0909H121.119L105.688 54.2727H103.983L97.6648 61.0455ZM90.1648 72V25.4545H98.392V72H90.1648ZM112.074 72L100.71 56.1136L106.256 50.3182L121.915 72H112.074ZM140.619 72.6818C137.119 72.6818 134.097 71.9545 131.551 70.5C129.021 69.0303 127.074 66.9545 125.71 64.2727C124.347 61.5758 123.665 58.4015 123.665 54.75C123.665 51.1591 124.347 48.0076 125.71 45.2955C127.089 42.5682 129.013 40.447 131.483 38.9318C133.953 37.4015 136.854 36.6364 140.188 36.6364C142.339 36.6364 144.369 36.9848 146.278 37.6818C148.203 38.3636 149.9 39.4242 151.369 40.8636C152.854 42.303 154.021 44.1364 154.869 46.3636C155.718 48.5758 156.142 51.2121 156.142 54.2727V56.7955H127.528V51.25H148.256C148.241 49.6742 147.9 48.2727 147.233 47.0455C146.566 45.803 145.634 44.8258 144.438 44.1136C143.256 43.4015 141.877 43.0455 140.301 43.0455C138.619 43.0455 137.142 43.4545 135.869 44.2727C134.597 45.0758 133.604 46.1364 132.892 47.4545C132.195 48.7576 131.839 50.1894 131.824 51.75V56.5909C131.824 58.6212 132.195 60.3636 132.938 61.8182C133.68 63.2576 134.718 64.3636 136.051 65.1364C137.384 65.8939 138.945 66.2727 140.733 66.2727C141.93 66.2727 143.013 66.1061 143.983 65.7727C144.953 65.4242 145.794 64.9167 146.506 64.25C147.218 63.5833 147.756 62.7576 148.119 61.7727L155.801 62.6364C155.316 64.6667 154.392 66.4394 153.028 67.9545C151.68 69.4545 149.953 70.6212 147.847 71.4545C145.741 72.2727 143.331 72.6818 140.619 72.6818ZM203.08 51.5455V72H194.852V37.0909H202.716V43.0227H203.125C203.928 41.0682 205.208 39.5152 206.966 38.3636C208.739 37.2121 210.928 36.6364 213.534 36.6364C215.943 36.6364 218.042 37.1515 219.83 38.1818C221.633 39.2121 223.027 40.7045 224.011 42.6591C225.011 44.6136 225.504 46.9848 225.489 49.7727V72H217.261V51.0455C217.261 48.7121 216.655 46.8864 215.443 45.5682C214.246 44.25 212.587 43.5909 210.466 43.5909C209.027 43.5909 207.746 43.9091 206.625 44.5455C205.519 45.1667 204.648 46.0682 204.011 47.25C203.39 48.4318 203.08 49.8636 203.08 51.5455ZM249.307 72.6818C245.807 72.6818 242.784 71.9545 240.239 70.5C237.708 69.0303 235.761 66.9545 234.398 64.2727C233.034 61.5758 232.352 58.4015 232.352 54.75C232.352 51.1591 233.034 48.0076 234.398 45.2955C235.777 42.5682 237.701 40.447 240.17 38.9318C242.64 37.4015 245.542 36.6364 248.875 36.6364C251.027 36.6364 253.057 36.9848 254.966 37.6818C256.89 38.3636 258.587 39.4242 260.057 40.8636C261.542 42.303 262.708 44.1364 263.557 46.3636C264.405 48.5758 264.83 51.2121 264.83 54.2727V56.7955H236.216V51.25H256.943C256.928 49.6742 256.587 48.2727 255.92 47.0455C255.254 45.803 254.322 44.8258 253.125 44.1136C251.943 43.4015 250.564 43.0455 248.989 43.0455C247.307 43.0455 245.83 43.4545 244.557 44.2727C243.284 45.0758 242.292 46.1364 241.58 47.4545C240.883 48.7576 240.527 50.1894 240.511 51.75V56.5909C240.511 58.6212 240.883 60.3636 241.625 61.8182C242.367 63.2576 243.405 64.3636 244.739 65.1364C246.072 65.8939 247.633 66.2727 249.42 66.2727C250.617 66.2727 251.701 66.1061 252.67 65.7727C253.64 65.4242 254.481 64.9167 255.193 64.25C255.905 63.5833 256.443 62.7576 256.807 61.7727L264.489 62.6364C264.004 64.6667 263.08 66.4394 261.716 67.9545C260.367 69.4545 258.64 70.6212 256.534 71.4545C254.428 72.2727 252.019 72.6818 249.307 72.6818ZM278.807 72L268.943 37.0909H277.33L283.466 61.6364H283.784L290.057 37.0909H298.352L304.625 61.5H304.966L311.011 37.0909H319.42L309.534 72H300.966L294.42 48.4091H293.943L287.398 72H278.807ZM352.756 46.3182L345.256 47.1364C345.044 46.3788 344.672 45.6667 344.142 45C343.627 44.3333 342.93 43.7955 342.051 43.3864C341.172 42.9773 340.097 42.7727 338.824 42.7727C337.112 42.7727 335.672 43.1439 334.506 43.8864C333.354 44.6288 332.786 45.5909 332.801 46.7727C332.786 47.7879 333.157 48.6136 333.915 49.25C334.688 49.8864 335.96 50.4091 337.733 50.8182L343.688 52.0909C346.991 52.803 349.445 53.9318 351.051 55.4773C352.672 57.0227 353.491 59.0455 353.506 61.5455C353.491 63.7424 352.847 65.6818 351.574 67.3636C350.316 69.0303 348.566 70.3333 346.324 71.2727C344.081 72.2121 341.506 72.6818 338.597 72.6818C334.324 72.6818 330.884 71.7879 328.278 70C325.672 68.197 324.119 65.6894 323.619 62.4773L331.642 61.7045C332.006 63.2803 332.778 64.4697 333.96 65.2727C335.142 66.0758 336.68 66.4773 338.574 66.4773C340.528 66.4773 342.097 66.0758 343.278 65.2727C344.475 64.4697 345.074 63.4773 345.074 62.2955C345.074 61.2955 344.688 60.4697 343.915 59.8182C343.157 59.1667 341.975 58.6667 340.369 58.3182L334.415 57.0682C331.066 56.3712 328.589 55.197 326.983 53.5455C325.377 51.8788 324.581 49.7727 324.597 47.2273C324.581 45.0758 325.165 43.2121 326.347 41.6364C327.544 40.0455 329.203 38.8182 331.324 37.9545C333.46 37.0758 335.922 36.6364 338.71 36.6364C342.801 36.6364 346.021 37.5076 348.369 39.25C350.733 40.9924 352.195 43.3485 352.756 46.3182Z" fill="black"/>
</svg>
